<svg width="24" height="24" viewBox="0 0 24 24" fill="none" xmlns="http://www.w3.org/2000/svg">
<path d="M18.5303 3.53033C18.8232 3.23744 18.8232 2.76256 18.5303 2.46967C18.2374 2.17678 17.7626 2.17678 17.4697 2.46967L18.5303 3.53033ZM2.46967 17.4697C2.17678 17.7626 2.17678 18.2374 2.46967 18.5303C2.76256 18.8232 3.23744 18.8232 3.53033 18.5303L2.46967 17.4697ZM17.4697 2.46967L2.46967 17.4697L3.53033 18.5303L18.5303 3.53033L17.4697 2.46967Z" fill="#1C1243"/>
<path d="M6 14.4623H16.1909C17.6066 14.4623 18.472 12.7739 17.7261 11.4671L17.2365 10.6092C16.7547 9.76504 16.7547 8.69728 17.2365 7.85309L17.7261 6.99524C18.472 5.68842 17.6066 4 16.1909 4L6 4L6 14.4623ZM6 14.4623L6 20" stroke="#1C1243" stroke-width="1.5" stroke-linecap="round" stroke-linejoin="round"/>
</svg>
